<svg xmlns="http://www.w3.org/2000/svg" width="119" height="119" viewBox="0 0 119 119" fill="none">
<path fill-rule="evenodd" clip-rule="evenodd" d="M21.1771 43.9199C28.8439 53.7133 40.2093 58.2932 61.1621 60.0212C77.4008 61.3535 80.4418 62.0182 88.3523 65.9225C90.2825 66.8733 92.8763 68.3356 93.6986 68.9395C93.8644 69.0673 93.7651 68.6905 93.4226 67.9148C92.2665 65.32 92.1642 63.2745 93.1983 62.9011C94.4566 62.4376 94.6764 62.6131 95.102 64.2616C95.604 66.2475 99.2393 73.1595 100.899 75.3056C101.607 76.2124 101.031 77.676 95.7503 74.9767C93.2124 73.6795 90.7122 72.9262 86.9594 72.3042C82.8713 71.6258 82.031 71.4007 82.1394 70.9961C82.4062 70.0001 85.425 70.1251 91.2932 71.3806L93.5788 71.8763C93.5632 71.8721 88.7344 67.6094 79.6472 64.4239C75.669 63.0244 71.2716 62.3798 59.5946 61.4526C43.7688 60.1977 34.8417 57.7222 26.4961 52.267C22.0661 49.3787 16.5365 43.5605 17.288 42.561C18.2266 41.3614 19.5243 41.8092 21.1771 43.9199Z" fill="white" fill-opacity="0.6"/>
</svg>