<svg xmlns="http://www.w3.org/2000/svg" width="54" height="67" viewBox="0 0 54 67" fill="none">
<g id="Frame" clip-path="url(#clip0_152_641)">
<g id="Group">
<path id="Vector" d="M45.3981 66.2723L4.06559 57.9225C2.10319 57.5278 0.828015 55.5932 1.21744 53.5966L4.34048 37.725C4.7299 35.7362 6.63885 34.4438 8.60888 34.8385L49.9414 43.1883C51.9038 43.583 53.179 45.5176 52.7896 47.5142L49.6665 63.3859C49.2694 65.3747 47.3605 66.667 45.3981 66.2723Z" stroke="white" stroke-width="1.6899" stroke-miterlimit="10"/>
<path id="Vector_2" d="M12.9463 36.0136L15.489 23.0826C15.8708 21.1634 17.711 19.9098 19.6047 20.2967L45.2762 25.4815C47.1699 25.8684 48.4069 27.7334 48.0251 29.6526L45.4824 42.5836" stroke="white" stroke-width="1.6899" stroke-miterlimit="10"/>
<path id="Vector_3" d="M24.415 21.6518L26.0033 13.5883C26.2782 12.1722 27.5457 11.2358 28.8285 11.4912L40.0989 13.7663C41.3818 14.0217 42.1912 15.3836 41.9163 16.7998L40.4044 24.4919" stroke="white" stroke-width="1.6899" stroke-miterlimit="10"/>
<path id="Vector_4" fill-rule="evenodd" clip-rule="evenodd" d="M35.0361 9.19259C26.6978 2.12734 34.7307 -2.93365 36.464 1.9184C39.9077 -1.88895 45.4131 5.91147 35.0361 9.19259Z" fill="white"/>
<g id="Group_2">
<path id="Vector_5" d="M4.11133 40.7891C6.27989 41.2302 5.98973 42.6927 8.1583 43.1338C10.3269 43.5749 10.617 42.1046 12.7779 42.5457C14.9465 42.9868 14.6563 44.4494 16.8249 44.8905C18.9935 45.3316 19.2836 43.8613 21.4522 44.3023C23.6208 44.7434 23.3306 46.206 25.4992 46.6471C27.6677 47.0882 27.9579 45.6179 30.1265 46.059C32.295 46.5001 32.0049 47.9627 34.1811 48.4038C36.3496 48.8448 36.6398 47.3745 38.8083 47.8156C40.9769 48.2567 40.6867 49.7193 42.8629 50.1604C45.0315 50.6015 45.3217 49.1312 47.4979 49.5723C49.6664 50.0134 49.3839 51.4759 51.5525 51.917" stroke="white" stroke-width="1.1769" stroke-miterlimit="10"/>
</g>
<g id="Group_3">
<path id="Vector_6" d="M15.0918 25.1035C17.1458 25.5214 16.8557 26.984 18.9173 27.4019C20.979 27.8197 21.2615 26.3494 23.3155 26.7673C25.3696 27.1852 25.0794 28.6478 27.1411 29.0656C29.1951 29.4835 29.4853 28.0132 31.5393 28.4311C33.5933 28.849 33.3031 30.3115 35.3572 30.7294C37.4112 31.1473 37.7014 29.677 39.7554 30.0949C41.8171 30.5127 41.5269 31.9753 43.5809 32.3932C45.6426 32.8111 45.9251 31.3408 47.9868 31.7586" stroke="white" stroke-width="1.1769" stroke-miterlimit="10"/>
</g>
<g id="Group_4">
<path id="Vector_7" d="M26.2856 14.0293C26.5376 14.0835 27.2325 15.7472 28.584 16.0181C29.3476 16.1729 30.5235 14.8883 31.4627 15.074C32.295 15.2442 32.8906 16.8848 33.7687 17.0628C34.6468 17.2408 35.8151 15.9562 36.655 16.1187C37.6019 16.3122 38.1975 17.9527 38.9611 18.1075C40.5035 18.417 40.5417 16.9003 41.8397 17.1634" stroke="white" stroke-width="1.1769" stroke-miterlimit="10"/>
</g>
</g>
</g>
<defs>
<clipPath id="clip0_152_641">
<rect width="53" height="67" fill="white" transform="translate(0.5)"/>
</clipPath>
</defs>
</svg>