<svg xmlns="http://www.w3.org/2000/svg" width="86" height="58" viewBox="0 0 86 58" fill="none">
<g clip-path="url(#clip0_152_581)">
<path d="M69.0605 30.6285C70.7327 19.7546 63.2733 9.58394 52.3994 7.91171C41.5255 6.23948 31.3549 13.6989 29.6826 24.5728C28.0104 35.4467 35.4698 45.6173 46.3437 47.2896C57.2176 48.9618 67.3883 41.5024 69.0605 30.6285Z" stroke="white" stroke-width="2.3434" stroke-miterlimit="10"/>
<path d="M8.67007 23.7804L7.31007 23.4204L1.83007 21.9604L1.57007 13.7204L7.63007 8.90039L15.6101 11.0204L15.6001 18.3204" stroke="white" stroke-width="1.9312" stroke-miterlimit="10"/>
<path d="M1.66016 22.2715L15.6102 11.0215" stroke="white" stroke-width="1.1717" stroke-miterlimit="10"/>
<path d="M1.57007 13.7204L8.34007 16.3004L7.63007 8.90039" stroke="white" stroke-width="1.1717" stroke-miterlimit="10"/>
<path d="M8.74023 16.4902L12.4802 21.2302" stroke="white" stroke-width="1.1717" stroke-miterlimit="10"/>
<path d="M44.2181 38.4823C45.3491 27.5391 37.3947 17.7511 26.4515 16.6201C15.5083 15.4891 5.72024 23.4435 4.58928 34.3867C3.45832 45.33 11.4127 55.118 22.3559 56.2489C33.2991 57.3799 43.0872 49.4255 44.2181 38.4823Z" stroke="white" stroke-width="2.3434" stroke-miterlimit="10"/>
<path d="M71.8398 9.8807L77.7298 0.470703" stroke="white" stroke-width="1.7782" stroke-miterlimit="10"/>
<path d="M74.4697 18.2098L85.1797 15.3398" stroke="white" stroke-width="1.7782" stroke-miterlimit="10"/>
<path d="M75.1602 27L81.2702 31.74" stroke="white" stroke-width="1.7782" stroke-miterlimit="10"/>
</g>
<defs>
<clipPath id="clip0_152_581">
<rect width="84.82" height="57.53" fill="white" transform="translate(0.590088)"/>
</clipPath>
</defs>
</svg>