<svg xmlns="http://www.w3.org/2000/svg" width="52" height="66" viewBox="0 0 52 66" fill="none">
<g id="Frame" clip-path="url(#clip0_152_622)">
<g id="Group">
<path id="Vector" d="M30.1997 15.9994L50.1797 1.10938" stroke="white" stroke-miterlimit="10"/>
<path id="Vector_2" d="M18.1399 30.6209L3.41992 3.21094L43.5799 12.7009L18.1399 30.6209Z" stroke="white" stroke-width="1.7782" stroke-miterlimit="10"/>
<path id="Vector_3" d="M12.79 11.0605L31.68 15.5305L19.72 23.9605L12.79 11.0605Z" fill="white"/>
<path id="Vector_4" d="M12.4798 54.5898L20.0798 65.4998L0.799805 60.9398L12.4798 54.5898Z" fill="white"/>
<path id="Vector_5" d="M18.1399 30.6191L12.1699 55.8791" stroke="white" stroke-width="1.7782" stroke-miterlimit="10"/>
<path id="Vector_6" d="M41.6299 7.40046C40.5399 5.63046 37.6499 5.43046 35.1899 6.95046C32.7299 8.47046 31.6099 11.1405 32.7099 12.9105C33.7999 14.6805 36.6899 14.8805 39.1499 13.3605C41.6099 11.8405 42.7199 9.17046 41.6299 7.40046Z" fill="white"/>
<path id="Vector_7" d="M50.1997 2C50.752 2 51.1997 1.55228 51.1997 1C51.1997 0.447715 50.752 0 50.1997 0C49.6474 0 49.1997 0.447715 49.1997 1C49.1997 1.55228 49.6474 2 50.1997 2Z" fill="white"/>
</g>
</g>
<defs>
<clipPath id="clip0_152_622">
<rect width="50.4" height="65.5" fill="white" transform="translate(0.799805)"/>
</clipPath>
</defs>
</svg>